<?xml version="1.0" encoding="UTF-8" standalone="no"?>
<!-- Created with Inkscape (http://www.inkscape.org/) -->

<svg
   version="1.1"
   id="svg1"
   width="682.66669"
   height="682.66669"
   viewBox="0 0 682.66669 682.66669"
   sodipodi:docname="Tools-01.eps"
   xmlns:inkscape="http://www.inkscape.org/namespaces/inkscape"
   xmlns:sodipodi="http://sodipodi.sourceforge.net/DTD/sodipodi-0.dtd"
   xmlns="http://www.w3.org/2000/svg"
   xmlns:svg="http://www.w3.org/2000/svg">
  <defs
     id="defs1" />
  <sodipodi:namedview
     id="namedview1"
     pagecolor="#ffffff"
     bordercolor="#000000"
     borderopacity="0.25"
     inkscape:showpageshadow="2"
     inkscape:pageopacity="0.0"
     inkscape:pagecheckerboard="0"
     inkscape:deskcolor="#d1d1d1">
    <inkscape:page
       x="0"
       y="0"
       inkscape:label="1"
       id="page1"
       width="682.66669"
       height="682.66669"
       margin="0"
       bleed="0" />
  </sodipodi:namedview>
  <g
     id="g1"
     inkscape:groupmode="layer"
     inkscape:label="1">
    <g
       id="group-R5">
      <path
         id="path2"
         d="M 2560,5120 C 3969.97,5120 5120,3969.97 5120,2560 5120,1150.03 3969.97,0 2560,0 1150.03,0 0,1150.03 0,2560 0,3969.97 1150.03,5120 2560,5120"
         style="fill:#77caa9;fill-opacity:1;fill-rule:nonzero;stroke:none"
         transform="matrix(0.13333333,0,0,-0.13333333,0,682.66667)" />
      <path
         id="path3"
         d="m 1197.29,3985.72 -228.427,-220.55 236.307,-472.62 472.61,-236.3 535.64,-535.63 78.76,78.76 -819.2,811.33 228.44,220.55 47.26,-47.26 -78.77,165.41 -472.62,236.31 M 2638.77,2024.37 2560,1945.6 3528.86,976.742 c 63.02,-63.023 149.67,-94.523 228.43,-94.523 78.77,0 165.42,31.5 228.43,94.523 86.65,78.768 110.28,196.918 86.65,299.318 -15.76,-55.13 -39.38,-102.4 -86.65,-149.66 -63.01,-63.01 -149.66,-94.53 -228.43,-94.53 -78.76,0 -165.41,31.52 -228.43,94.53 l -890.09,897.97"
         style="fill:#62a48e;fill-opacity:1;fill-rule:nonzero;stroke:none"
         transform="matrix(0.13333333,0,0,-0.13333333,0,682.66667)" />
      <path
         id="path4"
         d="M 2756.92,2134.65 1472.98,3410.71 1701.42,3631.26 2993.23,2363.08 2756.92,2134.65"
         style="fill:#495671;fill-opacity:1;fill-rule:nonzero;stroke:none"
         transform="matrix(0.13333333,0,0,-0.13333333,0,682.66667)" />
      <path
         id="path5"
         d="m 3993.6,1126.4 c -126.03,-126.03 -330.83,-126.03 -456.86,0 l -1126.4,1126.4 c -126.03,126.03 -126.03,330.83 0,456.86 126.03,126.03 330.83,126.03 456.86,0 l 1126.4,-1126.4 c 126.03,-126.03 126.03,-330.83 0,-456.86"
         style="fill:#f3cc70;fill-opacity:1;fill-rule:nonzero;stroke:none"
         transform="matrix(0.13333333,0,0,-0.13333333,0,682.66667)" />
      <path
         id="path6"
         d="m 3520.99,4159.02 c -441.12,0 -803.45,-362.35 -803.45,-803.45 0,-102.4 23.63,-196.92 55.14,-291.45 l -252.06,-252.06 23.63,-23.63 c 31.5,7.88 55.13,15.75 86.64,15.75 78.77,0 165.42,-31.5 228.44,-94.52 l 228.42,-228.43 126.04,126.03 c 86.64,-31.51 189.04,-55.14 291.44,-55.14 441.11,0 803.44,362.34 803.44,803.45 7.88,110.27 -15.75,204.8 -47.25,299.32 l -519.88,-527.75 c -63.01,-63.02 -149.66,-94.52 -228.43,-94.52 -78.77,0 -165.41,31.5 -228.43,94.52 -126.04,126.03 -126.04,330.83 0,456.86 l 519.87,519.88 c -86.64,31.51 -181.16,55.14 -283.56,55.14 M 2221.29,2512.73 1898.34,2189.79 c -94.53,23.63 -189.05,47.26 -299.33,47.26 -441.1,0 -803.44,-362.34 -803.44,-803.45 0,-102.4 23.629,-196.92 55.137,-291.44 l 519.883,519.87 c 63.01,63.02 149.65,94.52 228.42,94.52 78.77,0 165.42,-31.5 228.44,-94.52 126.03,-126.03 126.03,-330.83 0,-456.86 L 1307.57,685.289 c 86.64,-31.5 189.05,-55.129 291.44,-55.129 441.11,0 803.45,362.328 803.45,803.44 0,102.4 -23.63,196.93 -55.14,291.45 l 220.56,220.55 -157.54,157.53 c -78.77,78.77 -110.28,189.06 -86.65,291.45 0,7.88 0,15.76 -7.87,23.63 l -94.53,94.52"
         style="fill:#62a48e;fill-opacity:1;fill-rule:nonzero;stroke:none"
         transform="matrix(0.13333333,0,0,-0.13333333,0,682.66667)" />
      <path
         id="path7"
         d="m 2300.06,2591.51 -78.77,-78.78 102.4,-102.39 c -7.87,47.26 -7.87,102.39 0,149.66 l -23.63,31.51 m 23.63,-196.93 c -23.63,-102.39 7.88,-212.68 86.65,-291.45 l 157.54,-157.53 78.77,78.77 -228.44,228.43 c -47.26,47.26 -78.76,94.52 -94.52,141.78"
         style="fill:#538777;fill-opacity:1;fill-rule:nonzero;stroke:none"
         transform="matrix(0.13333333,0,0,-0.13333333,0,682.66667)" />
      <path
         id="path8"
         d="m 2528.49,2819.94 -70.89,-70.89 c 31.51,23.63 63.02,31.5 94.52,47.26 l -23.63,23.63 m -157.54,-157.54 -70.89,-70.89 23.63,-23.63 c 7.88,31.5 23.63,63.01 47.26,94.52"
         style="fill:#404a5f;fill-opacity:1;fill-rule:nonzero;stroke:none"
         transform="matrix(0.13333333,0,0,-0.13333333,0,682.66667)" />
      <path
         id="path9"
         d="m 2638.77,2804.18 c -31.5,0 -55.14,-7.87 -86.65,-15.75 -31.5,-7.88 -63.01,-23.63 -94.52,-47.26 l -86.65,-86.65 c -23.63,-31.5 -39.38,-63.01 -47.26,-94.52 -15.75,-47.27 -15.75,-102.4 0,-149.66 0,-7.88 0,-15.76 7.88,-23.63 15.75,-47.27 39.38,-102.4 86.65,-141.79 l 228.43,-228.43 456.86,456.86 -228.43,228.43 c -78.77,70.9 -157.54,102.4 -236.31,102.4"
         style="fill:#c7a85f;fill-opacity:1;fill-rule:nonzero;stroke:none"
         transform="matrix(0.13333333,0,0,-0.13333333,0,682.66667)" />
      <path
         id="path10"
         d="m 3264.52,2814.94 -969.13,-969.15 -451.16,451.15 969.14,969.14 451.15,-451.14"
         style="fill:#ffffff;fill-opacity:1;fill-rule:nonzero;stroke:none"
         transform="matrix(0.13333333,0,0,-0.13333333,0,682.66667)" />
      <path
         id="path11"
         d="m 1677.78,3205.91 -472.61,244.18 -236.307,472.62 220.547,228.43 472.62,-244.19 252.06,-472.61 -236.31,-228.43"
         style="fill:#495671;fill-opacity:1;fill-rule:nonzero;stroke:none"
         transform="matrix(0.13333333,0,0,-0.13333333,0,682.66667)" />
      <path
         id="path12"
         d="m 3741.54,3292.55 c -126.03,-126.03 -330.84,-126.03 -456.86,0 -126.04,126.03 -126.04,330.83 0,456.86 l 519.87,519.88 c -86.64,23.64 -181.16,47.26 -291.44,47.26 -441.11,0 -803.45,-362.34 -803.45,-803.44 0,-441.11 370.21,-795.57 811.33,-795.57 441.1,0 803.44,362.34 803.44,803.45 0,102.39 -23.63,196.92 -55.13,291.44 l -527.76,-519.88"
         style="fill:#ffffff;fill-opacity:1;fill-rule:nonzero;stroke:none"
         transform="matrix(0.13333333,0,0,-0.13333333,0,682.66667)" />
      <path
         id="path13"
         d="m 1378.46,1827.44 c 126.03,126.04 330.83,126.04 456.86,0 126.03,-126.02 126.03,-330.83 0,-456.85 L 1315.44,850.699 c 86.65,-31.5 189.05,-55.129 291.45,-55.129 441.11,0 803.45,362.34 803.45,803.44 0,441.12 -362.34,803.45 -803.45,803.45 -441.1,0 -803.445,-362.33 -803.445,-803.45 0,-102.4 23.629,-196.92 55.141,-291.44 l 519.874,519.87"
         style="fill:#ffffff;fill-opacity:1;fill-rule:nonzero;stroke:none"
         transform="matrix(0.13333333,0,0,-0.13333333,0,682.66667)" />
    </g>
  </g>
</svg>
